<svg width="154" height="30" viewBox="0 0 154 30" fill="none" xmlns="http://www.w3.org/2000/svg">
<g id="switch vibes logo_1 1">
<g id="Layer 1">
<g id="Group">
<g id="Group_2">
<path id="Vector" d="M12.3004 21.248C12.3004 25.5297 10.1513 27.8294 6.1502 27.8294C2.14908 27.8294 0 25.5284 0 21.248H0.00684462V19.7614H3.20719V21.248H3.20035V21.9584C3.20035 24.024 4.21876 25.1136 6.14883 25.1136C8.07889 25.1136 9.09731 24.024 9.09731 21.9584V21.248C9.0672 16.8978 0.443505 15.5427 0.443505 9.1064C0.443505 5.08748 2.3941 3 6.14883 3C9.90356 3 11.8542 5.08748 11.8542 9.1064H11.8459V10.593H8.64559V9.1064V8.14136C8.64559 6.32902 7.82019 5.44475 6.12556 5.44475C4.43094 5.44475 3.60553 6.32902 3.60553 8.14136V9.1064C3.60553 12.9282 12.2963 14.7748 12.2977 21.248H12.3004Z" fill="white"/>
<path id="Vector_2" d="M26.3543 27.5761H25.6138H23.5427L21.4908 15.4564L19.4403 27.5761H17.3692H16.6273L13.4503 10.0262H16.4247L18.2138 22.5895L20.3396 10.0276H22.6434L24.7692 22.5895L26.5569 10.0262H29.5314L26.3529 27.5761H26.3543Z" fill="white"/>
<path id="Vector_3" d="M31.0659 5.91998C31.0659 4.84544 31.8584 3.97485 32.8371 3.97485C33.8159 3.97485 34.6084 4.84544 34.6084 5.91998C34.6084 6.99451 33.8159 7.8651 32.8371 7.8651C31.8584 7.8651 31.0659 6.99451 31.0659 5.91998ZM31.237 27.5764V10.0251H34.4387V27.575H31.237V27.5764Z" fill="white"/>
<path id="Vector_4" d="M40.9599 23.3272C40.9599 24.6399 41.4075 25.119 42.634 25.119H43.6715V27.8293H42.634C39.3378 27.8293 37.7582 25.8171 37.7582 22.6113V12.4846H36.1826V10.0262H37.7582V4.91357H40.9585V10.0262H43.6715V12.4846H40.9585V23.3272H40.9599Z" fill="white"/>
<path id="Vector_5" d="M51.8215 14.2766C51.8215 12.9639 51.3739 12.4848 50.1474 12.4848C48.921 12.4848 48.4733 12.9639 48.4733 14.2766V23.3274C48.4733 24.6401 48.921 25.1192 50.1474 25.1192C51.3739 25.1192 51.8215 24.6401 51.8215 23.3274V21.0866H55.0219V22.6115C55.0219 25.8173 53.4436 27.8295 50.1461 27.8295C46.8485 27.8295 45.2703 25.8173 45.2703 22.6115V14.9939C45.2703 11.7881 46.8485 9.77588 50.1461 9.77588C53.4436 9.77588 55.0219 11.7881 55.0219 14.9939V16.4928H51.8215V14.278V14.2766Z" fill="white"/>
<path id="Vector_6" d="M67.0336 15.514V27.5749H63.8332V15.6345C63.8332 13.8837 63.3719 12.4656 62.1496 12.4656C60.9272 12.4656 60.4851 13.8783 60.4837 15.6222H60.4768V27.5763H57.2765V3.00146H60.4768V11.6224C61.023 10.4863 61.921 9.77038 63.2925 9.77038C65.5977 9.77038 67.0336 11.6963 67.0336 15.5154V15.514Z" fill="white"/>
<path id="Vector_7" d="M80.4263 3.00146L75.4629 27.5763H71.9819L67.0185 3.00146H70.1066L73.7231 22.7059L77.3395 3.00146H80.4263Z" fill="white"/>
<path id="Vector_8" d="M81.7472 5.91998C81.7472 4.84544 82.5398 3.97485 83.5185 3.97485C84.4972 3.97485 85.2898 4.84544 85.2898 5.91998C85.2898 6.99451 84.4972 7.8651 83.5185 7.8651C82.5398 7.8651 81.7472 6.99451 81.7472 5.91998ZM81.9183 27.5764V10.0251H85.12V27.575H81.9183V27.5764Z" fill="white"/>
<path id="Vector_9" d="M97.508 22.0708C97.508 25.8898 96.0721 27.8144 93.767 27.8144C92.3954 27.8144 91.4975 27.0985 90.9513 25.9624V27.5763H87.7509V3.00146H90.9513V11.6224C91.4975 10.4863 92.3954 9.77038 93.767 9.77038C96.0721 9.77038 97.508 11.695 97.508 15.514V22.0708ZM94.3063 15.6359C94.3063 13.8851 93.8464 12.467 92.6227 12.467C91.3989 12.467 90.9581 13.8796 90.9568 15.6235H90.9499V21.964H90.9568C90.9595 23.7079 91.403 25.1192 92.6227 25.1192C93.8423 25.1192 94.3063 23.7011 94.3063 21.9503V15.6372V15.6359Z" fill="white"/>
<path id="Vector_10" d="M109.476 14.9926V18.8061H102.926V23.3261C102.926 24.6388 103.374 25.1179 104.6 25.1179C105.826 25.1179 106.274 24.6388 106.274 23.3261V21.0853H109.474V22.6102C109.474 25.816 107.896 27.8282 104.599 27.8282C101.301 27.8282 99.7228 25.816 99.7228 22.6102V14.9926C99.7228 11.7867 101.301 9.77454 104.599 9.77454C107.896 9.77454 109.474 11.7881 109.474 14.9926H109.476ZM106.274 14.9926V14.2767C106.274 12.9639 105.826 12.4848 104.6 12.4848C103.374 12.4848 102.926 12.9639 102.926 14.2767V17.0225H106.275V14.9926H106.274Z" fill="white"/>
<path id="Vector_11" d="M121.022 22.6115C121.022 25.8173 119.442 27.8295 116.146 27.8295C112.85 27.8295 111.27 25.8173 111.27 22.6115H114.471V23.3274C114.471 24.6401 114.918 25.1192 116.145 25.1192C117.371 25.1192 117.819 24.6401 117.819 23.3274V22.6115C117.819 20.1462 111.608 20.023 111.608 14.9939C111.608 11.7881 112.847 9.77588 116.145 9.77588C119.442 9.77588 120.681 11.7881 120.681 14.9939H117.481V14.278C117.481 12.9653 117.07 12.4862 116.146 12.4862C115.222 12.4862 114.812 12.9653 114.812 14.278V14.9939C114.812 17.5194 121.022 17.7713 121.022 22.6115Z" fill="white"/>
</g>
</g>
</g>
</g>
</svg>
